# xmcd
#
# Track frame offsets: 
#        150
#        16925
#        44039
#        70116
#        95988
#        123011
#        140539
#        152529
#        175357
#        194527
#        229649
#        252692
#        274253
#        291914
#
# Disc length: 4053 seconds
#
# Revision: 1
# Processed by: cddbd v1.5.2PL0 Copyright (c) Steve Scherf et al.
# Submitted via: ExactAudioCopyFreeDBPlugin 1.0
#
DISCID=d40fd30e
DTITLE=Various Artist - Jazzclub Trends - Norway Nights
DYEAR=2010
DGENRE=Jazz
TTITLE0=Rebekka Bakken - Cover Me With Snow
TTITLE1=Nils Petter Molvaer - Merciful (Herbert's We Mix)
TTITLE2=Beady Belle - Bella
TTITLE3=Sidsel Endresen - Out Here, In There
TTITLE4=Bugge Wesseltoft - Oh Ye
TTITLE5=Punkt - Map
TTITLE6=Maria Kannegaard - Hey Ya
TTITLE7=Wibutee - Lookout
TTITLE8=Live Maria Roggen - Will You Love
TTITLE9=jon Eberson - Clandestine Band
TTITLE10=Torun Eriksen - Picking Up The Pieces
TTITLE11=Mari Boine - Gula Gula (Chilluminati Mix)
TTITLE12=Silje Nergaard - At First Light
TTITLE13=Ketil BjøRnstad - The Bait
EXTD=YEAR: 2010
EXTT0=
EXTT1=
EXTT2=
EXTT3=
EXTT4=
EXTT5=
EXTT6=
EXTT7=
EXTT8=
EXTT9=
EXTT10=
EXTT11=
EXTT12=
EXTT13=
PLAYORDER=
